<svg width="46" height="46" viewBox="0 0 46 46" fill="none" xmlns="http://www.w3.org/2000/svg">
<rect x="0.905589" y="0.905605" width="43.469" height="43.469" rx="21.7345" stroke="#FCC436" stroke-width="1.81121"/>
<path d="M13.8999 17.9522H32.4549" stroke="#FCC436" stroke-width="2.65071" stroke-linecap="round"/>
<path d="M16.6521 19.372C16.5973 18.6048 17.205 17.9522 17.9741 17.9522H28.3809C29.15 17.9522 29.7577 18.6048 29.7029 19.372L28.5669 35.2762C28.5173 35.9698 27.9402 36.5072 27.2449 36.5072H19.1101C18.4148 36.5072 17.8377 35.9698 17.7881 35.2762L16.6521 19.372Z" stroke="#FCC436" stroke-width="2.65071"/>
<path d="M23.1774 13.9761V11.3254C23.1774 10.5934 23.7708 10 24.5028 10H26.4908" stroke="#FCC436" stroke-width="2.65071" stroke-linecap="round"/>
<path d="M17.0288 15.0835C17.1353 14.4444 17.6882 13.976 18.3361 13.976H28.0188C28.6667 13.976 29.2196 14.4444 29.3261 15.0835L29.8042 17.9521H16.5507L17.0288 15.0835Z" fill="#FCC436" stroke="#FCC436" stroke-width="2.65071"/>
</svg>
