<svg width="46" height="46" viewBox="0 0 46 46" fill="none" xmlns="http://www.w3.org/2000/svg">
<rect x="0.905605" y="0.905605" width="43.469" height="43.469" rx="21.7345" stroke="#FCC436" stroke-width="1.81121"/>
<g clip-path="url(#clip0_1_161)">
<path d="M32.8536 9.32199L32.8537 9.32197C32.9895 8.64502 32.5509 7.98621 31.8741 7.85035L31.8738 7.8503C31.8072 7.83699 31.1104 7.70342 30.1907 7.76714C29.2725 7.83074 28.109 8.09269 27.1336 8.89178C26.355 9.52963 25.8299 10.387 25.5553 11.4384C23.9442 10.866 22.1382 10.8357 20.4451 11.4386C20.1705 10.3872 19.6454 9.52971 18.8667 8.89183C17.8912 8.09275 16.7277 7.83078 15.8096 7.76715C14.8899 7.70341 14.193 7.83695 14.1263 7.85033L14.1262 7.85035C13.45 7.98615 13.0086 8.64488 13.1445 9.32237L13.1445 9.32239C13.28 9.99763 13.9347 10.4377 14.6116 10.3029C14.6455 10.2968 15.0569 10.226 15.5868 10.2552C16.145 10.286 16.7985 10.4258 17.2891 10.8313C17.7557 11.2171 18.0537 11.845 18.1434 12.7456C17.6034 13.1923 17.1244 13.714 16.7229 14.2982H10.4148C9.72438 14.2982 9.16467 14.8579 9.16467 15.5482C9.16467 18.3608 11.6006 20.5489 14.366 20.2792C14.3165 20.4227 14.2574 20.594 14.189 20.7922C13.7935 21.9378 13.0876 23.983 12.1283 26.7613C11.903 27.4139 12.2493 28.1256 12.902 28.3509L12.9836 28.1145L12.902 28.3509C13.5547 28.5761 14.2663 28.2297 14.4915 27.5772C14.4915 27.5772 14.4915 27.5772 14.4915 27.5772L14.8362 26.5792L18.1646 34.9663C18.9536 36.9547 20.8444 38.2422 22.9825 38.2493L22.9845 38.2495C22.9883 38.2497 22.9937 38.2499 23.0002 38.2499C23.0066 38.2499 23.012 38.2497 23.0158 38.2495L23.0178 38.2493C25.1555 38.2422 27.0463 36.9548 27.8356 34.9664L27.8356 34.9664L31.164 26.5793L31.5085 27.5772L31.5085 27.5772C31.7339 28.23 32.4456 28.5761 33.098 28.3509L33.0981 28.3508C33.7507 28.1255 34.097 27.4139 33.8717 26.7613L33.6354 26.8429L33.8717 26.7613C33.6485 26.1147 33.4544 25.5529 33.284 25.0595C32.3136 22.25 32.1096 21.6595 31.6473 20.2805C34.4153 20.543 36.8354 18.3476 36.8354 15.5482C36.8354 14.8579 36.2757 14.2982 35.5853 14.2982H29.28C28.8911 13.7005 28.4412 13.2098 27.8574 12.7402C27.9477 11.8424 28.2455 11.2163 28.7111 10.8313C29.2017 10.4258 29.8553 10.2859 30.4131 10.255C30.9496 10.2253 31.3633 10.2983 31.3824 10.3017C31.383 10.3018 31.3832 10.3018 31.383 10.3018L31.4312 10.0565L31.3822 10.3016C32.0595 10.437 32.7178 9.99884 32.8536 9.32199ZM23.0235 38.249C23.0252 38.2489 23.0241 38.2489 23.0231 38.249L23.0235 38.249ZM25.4895 29.5873L25.4895 29.5873C26.1883 28.7802 25.6156 27.5188 24.5445 27.5188H21.4558C20.3885 27.5188 19.8096 28.7774 20.5108 29.5873L20.5108 29.5873L21.7501 31.0183V35.4461C21.1877 35.1541 20.7351 34.6656 20.4885 34.0442L20.2562 34.1364L20.4885 34.0442L16.0875 22.9541C17.6453 18.4424 17.7367 18.1783 17.8274 17.9138C17.8471 17.8562 17.8668 17.7986 17.9016 17.6971L17.9017 17.697C18.8603 14.8975 20.9328 13.4848 22.9747 13.4584C25.0127 13.432 27.1018 14.7862 28.0981 17.6956L28.0981 17.6957C28.2811 18.2299 28.9975 20.3031 29.4831 21.7088C29.6838 22.2895 29.8451 22.7564 29.9131 22.9536L25.5118 34.0441C25.2651 34.6655 24.8126 35.154 24.2502 35.4461V31.0183L25.4895 29.5873ZM15.4199 17.2264C14.3865 18.1535 12.7866 17.9211 12.0426 16.7983H15.5666C15.5528 16.8386 15.5388 16.8795 15.5245 16.9212C15.4912 17.0183 15.4566 17.1195 15.4199 17.2264ZM33.9573 16.7983C33.227 17.8991 31.666 18.1529 30.6227 17.2626C30.5656 17.1025 30.5094 16.9478 30.454 16.7983H33.9573Z" fill="#FCC436" stroke="#FCC436" stroke-width="0.5"/>
<path d="M25.7549 23.9375C26.4856 23.9375 27.0779 23.3452 27.0779 22.6146C27.0779 21.8839 26.4856 21.2916 25.7549 21.2916C25.0243 21.2916 24.432 21.8839 24.432 22.6146C24.432 23.3452 25.0243 23.9375 25.7549 23.9375Z" fill="#FCC436"/>
<path d="M20.2855 23.9375C21.0161 23.9375 21.6084 23.3452 21.6084 22.6146C21.6084 21.8839 21.0161 21.2916 20.2855 21.2916C19.5548 21.2916 18.9625 21.8839 18.9625 22.6146C18.9625 23.3452 19.5548 23.9375 20.2855 23.9375Z" fill="#FCC436"/>
</g>
<defs>
<clipPath id="clip0_1_161">
<rect width="30" height="30" fill="white" transform="translate(8 8)"/>
</clipPath>
</defs>
</svg>
