<svg width="227" height="69" viewBox="0 0 227 69" fill="none" xmlns="http://www.w3.org/2000/svg">
<rect x="94.7738" y="0.773842" width="37.1444" height="37.1444" rx="18.5722" stroke="#FCC436" stroke-width="1.54768"/>
<path d="M133.607 8.53861L133.608 8.53827C134.699 7.44721 134.699 5.70037 133.608 4.60931C132.516 3.51825 130.77 3.51825 129.679 4.60931L112.603 21.6851L107.023 16.1053C105.932 15.0142 104.185 15.0142 103.094 16.1053C102.003 17.1964 102.003 18.9432 103.094 20.0343L110.62 27.5606C111.711 28.6515 113.476 28.6516 114.567 27.5609C114.567 27.5608 114.567 27.5607 114.567 27.5606L133.607 8.53861Z" fill="#FCC436" stroke="#FCC436" stroke-width="2"/>
<path d="M30.6184 64V49.25H36.0984C37.0917 49.25 38.0017 49.4333 38.8284 49.8C39.655 50.1667 40.3684 50.68 40.9684 51.34C41.5684 52 42.0317 52.7767 42.3584 53.67C42.685 54.5633 42.8484 55.5367 42.8484 56.59C42.8484 57.6433 42.685 58.62 42.3584 59.52C42.0317 60.42 41.5684 61.2067 40.9684 61.88C40.3684 62.5467 39.655 63.0667 38.8284 63.44C38.0017 63.8133 37.0917 64 36.0984 64H30.6184ZM34.6584 62.82L32.8384 61H35.5584C36.1317 61 36.6584 60.8233 37.1384 60.47C37.625 60.11 38.015 59.6 38.3084 58.94C38.6017 58.28 38.7484 57.4967 38.7484 56.59C38.7484 55.6767 38.6017 54.8967 38.3084 54.25C38.015 53.6033 37.625 53.11 37.1384 52.77C36.6584 52.4233 36.1317 52.25 35.5584 52.25H32.8384L34.6584 50.43V62.82ZM53.4618 64.26C52.5085 64.26 51.6018 64.0967 50.7418 63.77C49.8885 63.4433 49.1318 62.9567 48.4718 62.31C47.8118 61.6633 47.2918 60.8633 46.9118 59.91C46.5318 58.9567 46.3418 57.8567 46.3418 56.61C46.3418 55.3567 46.5285 54.2567 46.9018 53.31C47.2818 52.3633 47.7985 51.57 48.4518 50.93C49.1118 50.29 49.8685 49.81 50.7218 49.49C51.5818 49.1633 52.4951 49 53.4618 49C54.4285 49 55.3418 49.1633 56.2018 49.49C57.0618 49.81 57.8185 50.29 58.4718 50.93C59.1318 51.57 59.6485 52.3633 60.0218 53.31C60.3951 54.2567 60.5818 55.3567 60.5818 56.61C60.5818 57.8567 60.3918 58.9567 60.0118 59.91C59.6318 60.8633 59.1085 61.6633 58.4418 62.31C57.7818 62.9567 57.0218 63.4433 56.1618 63.77C55.3085 64.0967 54.4085 64.26 53.4618 64.26ZM53.4618 61.14C53.9551 61.14 54.4318 61.0067 54.8918 60.74C55.3585 60.4667 55.7385 60 56.0318 59.34C56.3318 58.68 56.4818 57.77 56.4818 56.61C56.4818 55.4433 56.3318 54.5367 56.0318 53.89C55.7318 53.2367 55.3518 52.78 54.8918 52.52C54.4318 52.2533 53.9551 52.12 53.4618 52.12C52.9751 52.12 52.4985 52.2533 52.0318 52.52C51.5718 52.78 51.1918 53.2367 50.8918 53.89C50.5918 54.5367 50.4418 55.4433 50.4418 56.61C50.4418 57.7767 50.5918 58.69 50.8918 59.35C51.1918 60.0033 51.5718 60.4667 52.0318 60.74C52.4985 61.0067 52.9751 61.14 53.4618 61.14ZM68.4163 64H64.4863V49.25H70.6463L74.7163 62.79L73.9363 62.95V49.25H77.8663V64H71.6563L67.5863 50.51L68.4163 50.35V64ZM84.4123 52.25L86.2323 50.43V56.18L85.3323 55.1H90.6323V58.1H85.3323L86.2323 57.03V62.82L84.4123 61H91.7423V64H82.1723V49.25H91.7423V52.25H84.4123ZM103.15 64V49.25H109.69C111.37 49.25 112.61 49.6233 113.41 50.37C114.216 51.11 114.62 52.1433 114.62 53.47C114.62 54.2167 114.476 54.8533 114.19 55.38C113.903 55.9067 113.546 56.3133 113.12 56.6C112.693 56.8867 112.27 57.0467 111.85 57.08C112.283 57.1067 112.686 57.21 113.06 57.39C113.433 57.57 113.733 57.86 113.96 58.26C114.193 58.6533 114.31 59.1867 114.31 59.86C114.31 60.2867 114.31 60.6933 114.31 61.08C114.31 61.4667 114.31 61.8733 114.31 62.3C114.31 62.6533 114.336 62.99 114.39 63.31C114.45 63.6233 114.54 63.8533 114.66 64H110.62C110.513 63.8333 110.43 63.5967 110.37 63.29C110.316 62.9833 110.29 62.6533 110.29 62.3C110.29 61.9333 110.29 61.6033 110.29 61.31C110.29 61.0167 110.29 60.6867 110.29 60.32C110.29 59.7867 110.176 59.3667 109.95 59.06C109.723 58.7467 109.313 58.59 108.72 58.59H106.04L107.09 57.36V64H103.15ZM107.09 57L106.04 55.59H108.76C109.1 55.59 109.396 55.52 109.65 55.38C109.91 55.24 110.11 55.04 110.25 54.78C110.396 54.5133 110.47 54.2033 110.47 53.85C110.47 53.4167 110.313 53.04 110 52.72C109.693 52.4 109.273 52.24 108.74 52.24H105.94L107.09 51.04V57ZM120.79 52.25L122.61 50.43V56.18L121.71 55.1H127.01V58.1H121.71L122.61 57.03V62.82L120.79 61H128.12V64H118.55V49.25H128.12V52.25H120.79ZM144.615 58.43C144.615 59.1033 144.485 59.7833 144.225 60.47C143.971 61.15 143.581 61.7767 143.055 62.35C142.535 62.9233 141.871 63.3867 141.065 63.74C140.265 64.0867 139.315 64.26 138.215 64.26C136.768 64.26 135.528 63.9367 134.495 63.29C133.468 62.6367 132.681 61.7367 132.135 60.59C131.595 59.4433 131.325 58.12 131.325 56.62C131.325 55.12 131.595 53.8 132.135 52.66C132.681 51.5133 133.468 50.6167 134.495 49.97C135.528 49.3233 136.768 49 138.215 49C139.415 49 140.438 49.2033 141.285 49.61C142.138 50.0167 142.821 50.55 143.335 51.21C143.855 51.87 144.215 52.5767 144.415 53.33C144.548 53.8433 144.615 54.34 144.615 54.82H140.565C140.565 54.6067 140.551 54.42 140.525 54.26C140.465 53.8267 140.335 53.45 140.135 53.13C139.935 52.81 139.671 52.5633 139.345 52.39C139.025 52.21 138.648 52.12 138.215 52.12C137.695 52.12 137.225 52.2733 136.805 52.58C136.385 52.8867 136.048 53.37 135.795 54.03C135.548 54.69 135.425 55.5533 135.425 56.62C135.425 57.68 135.548 58.5433 135.795 59.21C136.048 59.8767 136.385 60.3667 136.805 60.68C137.225 60.9933 137.695 61.15 138.215 61.15C138.588 61.15 138.918 61.0833 139.205 60.95C139.498 60.81 139.745 60.6167 139.945 60.37C140.145 60.1233 140.298 59.8367 140.405 59.51C140.511 59.1767 140.565 58.8167 140.565 58.43H144.615ZM148.462 64V49.25H152.442V64H148.462ZM160.726 64H156.686V49.25H162.336C163.456 49.25 164.433 49.4733 165.266 49.92C166.1 50.36 166.746 50.9633 167.206 51.73C167.666 52.4967 167.896 53.3633 167.896 54.33C167.896 55.2967 167.666 56.1767 167.206 56.97C166.746 57.7567 166.1 58.3867 165.266 58.86C164.433 59.3267 163.456 59.56 162.336 59.56H160.726V64ZM160.726 58.39L158.906 56.57H161.926C162.26 56.57 162.57 56.49 162.856 56.33C163.15 56.1633 163.386 55.9133 163.566 55.58C163.746 55.2467 163.836 54.83 163.836 54.33C163.836 53.83 163.746 53.4267 163.566 53.12C163.386 52.8133 163.15 52.5933 162.856 52.46C162.57 52.32 162.26 52.25 161.926 52.25H158.906L160.726 50.43V58.39ZM173.976 52.25L175.796 50.43V56.18L174.896 55.1H180.196V58.1H174.896L175.796 57.03V62.82L173.976 61H181.306V64H171.736V49.25H181.306V52.25H173.976ZM190.963 64.26C189.87 64.26 188.89 64.0867 188.023 63.74C187.156 63.3867 186.47 62.8633 185.963 62.17C185.463 61.4767 185.213 60.6167 185.213 59.59C185.213 59.5033 185.213 59.4167 185.213 59.33C185.213 59.2433 185.213 59.1567 185.213 59.07H189.243C189.243 59.1433 189.243 59.2167 189.243 59.29C189.243 59.3633 189.243 59.4367 189.243 59.51C189.243 59.9767 189.386 60.3667 189.673 60.68C189.966 60.9933 190.41 61.15 191.003 61.15C191.576 61.15 192.026 61.0667 192.353 60.9C192.686 60.7267 192.853 60.4467 192.853 60.06C192.853 59.7733 192.696 59.5067 192.383 59.26C192.076 59.0133 191.66 58.78 191.133 58.56C190.613 58.34 190.033 58.13 189.393 57.93C188.7 57.71 188.04 57.4133 187.413 57.04C186.793 56.6667 186.286 56.1833 185.893 55.59C185.5 54.99 185.303 54.2467 185.303 53.36C185.303 52.4467 185.556 51.6667 186.063 51.02C186.57 50.3667 187.25 49.8667 188.103 49.52C188.963 49.1733 189.916 49 190.963 49C192.05 49 193.02 49.17 193.873 49.51C194.733 49.85 195.413 50.35 195.913 51.01C196.413 51.67 196.663 52.4867 196.663 53.46C196.663 53.5467 196.663 53.63 196.663 53.71C196.663 53.79 196.663 53.8733 196.663 53.96H192.633C192.633 53.9267 192.633 53.8767 192.633 53.81C192.633 53.7367 192.633 53.6833 192.633 53.65C192.633 53.2167 192.51 52.85 192.263 52.55C192.023 52.25 191.606 52.1 191.013 52.1C190.426 52.1 189.973 52.2067 189.653 52.42C189.34 52.6333 189.183 52.9433 189.183 53.35C189.183 53.6367 189.316 53.89 189.583 54.11C189.85 54.3233 190.216 54.5233 190.683 54.71C191.156 54.8967 191.69 55.0967 192.283 55.31C193.176 55.6233 193.96 55.97 194.633 56.35C195.306 56.7233 195.83 57.1933 196.203 57.76C196.583 58.3267 196.773 59.0533 196.773 59.94C196.773 60.8667 196.523 61.6533 196.023 62.3C195.523 62.94 194.833 63.4267 193.953 63.76C193.08 64.0933 192.083 64.26 190.963 64.26Z" fill="#41197F"/>
</svg>
