<svg width="227" height="69" viewBox="0 0 227 69" fill="none" xmlns="http://www.w3.org/2000/svg">
<rect x="94.7738" y="0.773842" width="37.1444" height="37.1444" rx="18.5722" stroke="#FCC436" stroke-width="1.54768"/>
<rect x="94.7738" y="0.773842" width="37.1444" height="37.1444" rx="18.5722" stroke="#FCC436" stroke-width="1.54768"/>
<path d="M113.445 31.2987C113.334 31.2987 113.225 31.2703 113.128 31.2161C111.16 30.0629 109.312 28.7145 107.613 27.1914C103.888 23.8393 102 20.4987 102 17.2624C102 15.9229 102.43 14.6187 103.226 13.5414C104.022 12.4641 105.143 11.6704 106.423 11.2767C107.703 10.883 109.076 10.9101 110.34 11.3539C111.604 11.7978 112.692 12.6352 113.445 13.743C114.198 12.6352 115.286 11.7978 116.55 11.3539C117.814 10.9101 119.187 10.883 120.467 11.2767C121.747 11.6704 122.868 12.4641 123.664 13.5414C124.46 14.6187 124.89 15.9229 124.89 17.2624C124.89 20.4987 123.002 23.8393 119.277 27.1914C117.578 28.7145 115.73 30.0629 113.762 31.2161C113.665 31.2703 113.556 31.2987 113.445 31.2987Z" fill="#FCC436"/>
<path d="M54.3082 52.25L56.1282 50.43V56.29L54.8982 55.34H60.9782V58.35H54.8982L56.1282 57.32V64H52.1082V49.25H61.8682V52.25H54.3082ZM63.977 64L67.407 49.25H73.817L77.227 64H73.097L70.607 51.66H70.627L68.107 64H63.977ZM66.977 60.9V57.87H74.257V60.9H66.977ZM82.3285 64L78.9285 49.25H83.3985L85.4385 61.69H85.2885L87.3185 49.25H91.7885L88.4085 64H82.3285ZM101.398 64.26C100.444 64.26 99.5377 64.0967 98.6777 63.77C97.8244 63.4433 97.0677 62.9567 96.4077 62.31C95.7477 61.6633 95.2277 60.8633 94.8477 59.91C94.4677 58.9567 94.2777 57.8567 94.2777 56.61C94.2777 55.3567 94.4644 54.2567 94.8377 53.31C95.2177 52.3633 95.7344 51.57 96.3877 50.93C97.0477 50.29 97.8044 49.81 98.6577 49.49C99.5177 49.1633 100.431 49 101.398 49C102.364 49 103.278 49.1633 104.138 49.49C104.998 49.81 105.754 50.29 106.408 50.93C107.068 51.57 107.584 52.3633 107.958 53.31C108.331 54.2567 108.518 55.3567 108.518 56.61C108.518 57.8567 108.328 58.9567 107.948 59.91C107.568 60.8633 107.044 61.6633 106.378 62.31C105.718 62.9567 104.958 63.4433 104.098 63.77C103.244 64.0967 102.344 64.26 101.398 64.26ZM101.398 61.14C101.891 61.14 102.368 61.0067 102.828 60.74C103.294 60.4667 103.674 60 103.968 59.34C104.268 58.68 104.418 57.77 104.418 56.61C104.418 55.4433 104.268 54.5367 103.968 53.89C103.668 53.2367 103.288 52.78 102.828 52.52C102.368 52.2533 101.891 52.12 101.398 52.12C100.911 52.12 100.434 52.2533 99.9677 52.52C99.5077 52.78 99.1277 53.2367 98.8277 53.89C98.5277 54.5367 98.3777 55.4433 98.3777 56.61C98.3777 57.7767 98.5277 58.69 98.8277 59.35C99.1277 60.0033 99.5077 60.4667 99.9677 60.74C100.434 61.0067 100.911 61.14 101.398 61.14ZM112.422 64V49.25H118.962C120.642 49.25 121.882 49.6233 122.682 50.37C123.489 51.11 123.892 52.1433 123.892 53.47C123.892 54.2167 123.749 54.8533 123.462 55.38C123.176 55.9067 122.819 56.3133 122.392 56.6C121.966 56.8867 121.542 57.0467 121.122 57.08C121.556 57.1067 121.959 57.21 122.332 57.39C122.706 57.57 123.006 57.86 123.232 58.26C123.466 58.6533 123.582 59.1867 123.582 59.86C123.582 60.2867 123.582 60.6933 123.582 61.08C123.582 61.4667 123.582 61.8733 123.582 62.3C123.582 62.6533 123.609 62.99 123.662 63.31C123.722 63.6233 123.812 63.8533 123.932 64H119.892C119.786 63.8333 119.702 63.5967 119.642 63.29C119.589 62.9833 119.562 62.6533 119.562 62.3C119.562 61.9333 119.562 61.6033 119.562 61.31C119.562 61.0167 119.562 60.6867 119.562 60.32C119.562 59.7867 119.449 59.3667 119.222 59.06C118.996 58.7467 118.586 58.59 117.992 58.59H115.312L116.362 57.36V64H112.422ZM116.362 57L115.312 55.59H118.032C118.372 55.59 118.669 55.52 118.922 55.38C119.182 55.24 119.382 55.04 119.522 54.78C119.669 54.5133 119.742 54.2033 119.742 53.85C119.742 53.4167 119.586 53.04 119.272 52.72C118.966 52.4 118.546 52.24 118.012 52.24H115.212L116.362 51.04V57ZM127.773 64V49.25H131.753V64H127.773ZM146.437 52.25H141.157L142.977 50.43V64H138.947V50.43L140.767 52.25H135.497V49.25H146.437V52.25ZM152.486 52.25L154.306 50.43V56.18L153.406 55.1H158.706V58.1H153.406L154.306 57.03V62.82L152.486 61H159.816V64H150.246V49.25H159.816V52.25H152.486ZM169.473 64.26C168.38 64.26 167.4 64.0867 166.533 63.74C165.666 63.3867 164.98 62.8633 164.473 62.17C163.973 61.4767 163.723 60.6167 163.723 59.59C163.723 59.5033 163.723 59.4167 163.723 59.33C163.723 59.2433 163.723 59.1567 163.723 59.07H167.753C167.753 59.1433 167.753 59.2167 167.753 59.29C167.753 59.3633 167.753 59.4367 167.753 59.51C167.753 59.9767 167.896 60.3667 168.183 60.68C168.476 60.9933 168.92 61.15 169.513 61.15C170.086 61.15 170.536 61.0667 170.863 60.9C171.196 60.7267 171.363 60.4467 171.363 60.06C171.363 59.7733 171.206 59.5067 170.893 59.26C170.586 59.0133 170.17 58.78 169.643 58.56C169.123 58.34 168.543 58.13 167.903 57.93C167.21 57.71 166.55 57.4133 165.923 57.04C165.303 56.6667 164.796 56.1833 164.403 55.59C164.01 54.99 163.813 54.2467 163.813 53.36C163.813 52.4467 164.066 51.6667 164.573 51.02C165.08 50.3667 165.76 49.8667 166.613 49.52C167.473 49.1733 168.426 49 169.473 49C170.56 49 171.53 49.17 172.383 49.51C173.243 49.85 173.923 50.35 174.423 51.01C174.923 51.67 175.173 52.4867 175.173 53.46C175.173 53.5467 175.173 53.63 175.173 53.71C175.173 53.79 175.173 53.8733 175.173 53.96H171.143C171.143 53.9267 171.143 53.8767 171.143 53.81C171.143 53.7367 171.143 53.6833 171.143 53.65C171.143 53.2167 171.02 52.85 170.773 52.55C170.533 52.25 170.116 52.1 169.523 52.1C168.936 52.1 168.483 52.2067 168.163 52.42C167.85 52.6333 167.693 52.9433 167.693 53.35C167.693 53.6367 167.826 53.89 168.093 54.11C168.36 54.3233 168.726 54.5233 169.193 54.71C169.666 54.8967 170.2 55.0967 170.793 55.31C171.686 55.6233 172.47 55.97 173.143 56.35C173.816 56.7233 174.34 57.1933 174.713 57.76C175.093 58.3267 175.283 59.0533 175.283 59.94C175.283 60.8667 175.033 61.6533 174.533 62.3C174.033 62.94 173.343 63.4267 172.463 63.76C171.59 64.0933 170.593 64.26 169.473 64.26Z" fill="#41197F"/>
</svg>
