<svg width="147" height="65" viewBox="0 0 147 65" fill="none" xmlns="http://www.w3.org/2000/svg">
<path fill-rule="evenodd" clip-rule="evenodd" d="M78.575 11.44C78.575 14.3229 76.2379 16.66 73.355 16.66C70.4721 16.66 68.135 14.3229 68.135 11.44C68.135 8.55707 70.4721 6.22 73.355 6.22C76.2379 6.22 78.575 8.55707 78.575 11.44Z" fill="#FCC436"/>
<path d="M73.355 0.75C65.2889 0.75 58.75 7.28888 58.75 15.355C58.75 23.4211 65.2889 29.96 73.355 29.96C81.4211 29.96 87.96 23.4211 87.96 15.355C87.96 7.28888 81.4211 0.75 73.355 0.75ZM73.4392 17.715C69.6671 17.715 66.3017 19.4564 64.1031 22.1782C62.6933 20.2698 61.86 17.91 61.86 15.355C61.86 9.00649 67.0065 3.86 73.355 3.86C79.7036 3.86 84.85 9.00649 84.85 15.355C84.85 17.8618 84.0479 20.1805 82.6862 22.0694C80.4865 19.4101 77.1607 17.715 73.4392 17.715Z" fill="#FCC436" stroke="#FCC436" stroke-width="0.5"/>
<path d="M31.0607 60H27.0207V45.25H32.6707C33.7907 45.25 34.7674 45.4733 35.6007 45.92C36.434 46.36 37.0807 46.9633 37.5407 47.73C38.0007 48.4967 38.2307 49.3633 38.2307 50.33C38.2307 51.2967 38.0007 52.1767 37.5407 52.97C37.0807 53.7567 36.434 54.3867 35.6007 54.86C34.7674 55.3267 33.7907 55.56 32.6707 55.56H31.0607V60ZM31.0607 54.39L29.2407 52.57H32.2607C32.594 52.57 32.904 52.49 33.1907 52.33C33.484 52.1633 33.7207 51.9133 33.9007 51.58C34.0807 51.2467 34.1707 50.83 34.1707 50.33C34.1707 49.83 34.0807 49.4267 33.9007 49.12C33.7207 48.8133 33.484 48.5933 33.1907 48.46C32.904 48.32 32.594 48.25 32.2607 48.25H29.2407L31.0607 46.43V54.39ZM42.0699 60V45.25H48.6099C50.2899 45.25 51.5299 45.6233 52.3299 46.37C53.1366 47.11 53.5399 48.1433 53.5399 49.47C53.5399 50.2167 53.3966 50.8533 53.1099 51.38C52.8233 51.9067 52.4666 52.3133 52.0399 52.6C51.6133 52.8867 51.1899 53.0467 50.7699 53.08C51.2033 53.1067 51.6066 53.21 51.9799 53.39C52.3533 53.57 52.6533 53.86 52.8799 54.26C53.1133 54.6533 53.2299 55.1867 53.2299 55.86C53.2299 56.2867 53.2299 56.6933 53.2299 57.08C53.2299 57.4667 53.2299 57.8733 53.2299 58.3C53.2299 58.6533 53.2566 58.99 53.3099 59.31C53.3699 59.6233 53.4599 59.8533 53.5799 60H49.5399C49.4333 59.8333 49.3499 59.5967 49.2899 59.29C49.2366 58.9833 49.2099 58.6533 49.2099 58.3C49.2099 57.9333 49.2099 57.6033 49.2099 57.31C49.2099 57.0167 49.2099 56.6867 49.2099 56.32C49.2099 55.7867 49.0966 55.3667 48.8699 55.06C48.6433 54.7467 48.2333 54.59 47.6399 54.59H44.9599L46.0099 53.36V60H42.0699ZM46.0099 53L44.9599 51.59H47.6799C48.0199 51.59 48.3166 51.52 48.5699 51.38C48.8299 51.24 49.0299 51.04 49.1699 50.78C49.3166 50.5133 49.3899 50.2033 49.3899 49.85C49.3899 49.4167 49.2333 49.04 48.9199 48.72C48.6133 48.4 48.1933 48.24 47.6599 48.24H44.8599L46.0099 47.04V53ZM64.1907 60.26C63.2374 60.26 62.3307 60.0967 61.4707 59.77C60.6174 59.4433 59.8607 58.9567 59.2007 58.31C58.5407 57.6633 58.0207 56.8633 57.6407 55.91C57.2607 54.9567 57.0707 53.8567 57.0707 52.61C57.0707 51.3567 57.2574 50.2567 57.6307 49.31C58.0107 48.3633 58.5274 47.57 59.1807 46.93C59.8407 46.29 60.5974 45.81 61.4507 45.49C62.3107 45.1633 63.224 45 64.1907 45C65.1574 45 66.0707 45.1633 66.9307 45.49C67.7907 45.81 68.5474 46.29 69.2007 46.93C69.8607 47.57 70.3774 48.3633 70.7507 49.31C71.124 50.2567 71.3107 51.3567 71.3107 52.61C71.3107 53.8567 71.1207 54.9567 70.7407 55.91C70.3607 56.8633 69.8374 57.6633 69.1707 58.31C68.5107 58.9567 67.7507 59.4433 66.8907 59.77C66.0374 60.0967 65.1374 60.26 64.1907 60.26ZM64.1907 57.14C64.684 57.14 65.1607 57.0067 65.6207 56.74C66.0874 56.4667 66.4674 56 66.7607 55.34C67.0607 54.68 67.2107 53.77 67.2107 52.61C67.2107 51.4433 67.0607 50.5367 66.7607 49.89C66.4607 49.2367 66.0807 48.78 65.6207 48.52C65.1607 48.2533 64.684 48.12 64.1907 48.12C63.704 48.12 63.2274 48.2533 62.7607 48.52C62.3007 48.78 61.9207 49.2367 61.6207 49.89C61.3207 50.5367 61.1707 51.4433 61.1707 52.61C61.1707 53.7767 61.3207 54.69 61.6207 55.35C61.9207 56.0033 62.3007 56.4667 62.7607 56.74C63.2274 57.0067 63.704 57.14 64.1907 57.14ZM77.4152 48.25L79.2352 46.43V52.29L78.0052 51.34H84.0852V54.35H78.0052L79.2352 53.32V60H75.2152V45.25H84.9752V48.25H77.4152ZM89.0231 60V45.25H93.0031V60H89.0231ZM97.2473 60V45.25H101.287V58.81L99.4673 56.79H106.547V60H97.2473ZM112.642 48.25L114.462 46.43V52.18L113.562 51.1H118.862V54.1H113.562L114.462 53.03V58.82L112.642 57H119.972V60H110.402V45.25H119.972V48.25H112.642Z" fill="#41197F"/>
</svg>
